# xmcd
# Copyright (C) 1995-1998 Ti Kan
#
# Track frame offsets:
#       150
#       19415
#       38803
#       61101
#       76662
#       94557
#       116463
#       129332
#       146331
#       169977
#       188585
#       209951
#       222952
#       252576
#       268269
#       286462
#       299380
#       312699
#
# Disc length: 4461 seconds
#
# Revision: 0
# Processed by: cddbd v1.5.2PL0 Copyright (c) Steve Scherf et al.
# Submitted via: CD-Import v1.0
#
DISCID=17116b12
DTITLE=Roxy Music - Best Of
DYEAR=2001
DGENRE=
TTITLE0=Avalon
TTITLE1=More Than This
TTITLE2=Jealous Guy
TTITLE3=Over You
TTITLE4=Same Old Scene
TTITLE5=Oh Yeah
TTITLE6=Angel Eyes
TTITLE7=Dance Away
TTITLE8=Both Ends Burning
TTITLE9=Love Is The Drug
TTITLE10=Out Of Blue
TTITLE11=All I Want Is You
TTITLE12=Mother Of Pearl
TTITLE13=Street Life
TTITLE14=Do The Strand
TTITLE15=Pyjamarama
TTITLE16=Virginia Plain
TTITLE17=Re-Make/Re-Model
EXTD=
EXTT0=
EXTT1=
EXTT2=
EXTT3=
EXTT4=
EXTT5=
EXTT6=
EXTT7=
EXTT8=
EXTT9=
EXTT10=
EXTT11=
EXTT12=
EXTT13=
EXTT14=
EXTT15=
EXTT16=
EXTT17=
PLAYORDER=
